<svg xmlns="http://www.w3.org/2000/svg" viewBox="0 0 192 192" width="192" height="192">
  <defs>
    <linearGradient id="bgGradient" x1="0%" y1="0%" x2="100%" y2="100%">
      <stop offset="0%" style="stop-color:#667eea;stop-opacity:1" />
      <stop offset="50%" style="stop-color:#764ba2;stop-opacity:1" />
      <stop offset="100%" style="stop-color:#f093fb;stop-opacity:1" />
    </linearGradient>
    <linearGradient id="checkGradient" x1="0%" y1="0%" x2="100%" y2="100%">
      <stop offset="0%" style="stop-color:#00f260;stop-opacity:1" />
      <stop offset="100%" style="stop-color:#0575e6;stop-opacity:1" />
    </linearGradient>
    <linearGradient id="pendingGradient" x1="0%" y1="0%" x2="100%" y2="100%">
      <stop offset="0%" style="stop-color:#ffeaa7;stop-opacity:1" />
      <stop offset="100%" style="stop-color:#fab1a0;stop-opacity:1" />
    </linearGradient>
    <filter id="shadow" x="-50%" y="-50%" width="200%" height="200%">
      <feDropShadow dx="0" dy="6" stdDeviation="6" flood-opacity="0.25"/>
    </filter>
  </defs>
  
  <!-- 主背景圆形 -->
  <circle cx="96" cy="96" r="90" fill="url(#bgGradient)" filter="url(#shadow)"/>
  
  <!-- 内部白色区域 -->
  <circle cx="96" cy="96" r="72" fill="white" fill-opacity="0.95"/>
  
  <!-- 已完成任务 -->
  <rect x="36" y="54" width="24" height="24" rx="6" fill="url(#checkGradient)"/>
  <path d="M43.5 64.5 L48 69 L58.5 58.5" 
        fill="none" 
        stroke="white" 
        stroke-width="6" 
        stroke-linecap="round" 
        stroke-linejoin="round"/>
  
  <!-- 待办任务 -->
  <rect x="36" y="90" width="24" height="24" rx="6" fill="url(#pendingGradient)"/>
  <rect x="36" y="126" width="24" height="24" rx="6" fill="#e5e7eb"/>
  
  <!-- 任务文本线条 -->
  <line x1="72" y1="66" x2="144" y2="66" 
        stroke="url(#checkGradient)" 
        stroke-width="7.5" 
        stroke-linecap="round"/>
  <line x1="72" y1="102" x2="138" y2="102" 
        stroke="url(#pendingGradient)" 
        stroke-width="7.5" 
        stroke-linecap="round"/>
  <line x1="72" y1="138" x2="126" y2="138" 
        stroke="#9ca3af" 
        stroke-width="7.5" 
        stroke-linecap="round"/>
  
  <!-- 装饰性元素 -->
  <circle cx="147" cy="66" r="4.5" fill="url(#checkGradient)" fill-opacity="0.7"/>
  <circle cx="141" cy="102" r="4.5" fill="url(#pendingGradient)" fill-opacity="0.7"/>
  <circle cx="129" cy="138" r="4.5" fill="#9ca3af" fill-opacity="0.7"/>
  
  <!-- 顶部装饰弧线 -->
  <path d="M60 36 Q96 24 132 36" 
        fill="none" 
        stroke="url(#bgGradient)" 
        stroke-width="4.5" 
        stroke-linecap="round" 
        opacity="0.6"/>
</svg>